<svg xmlns="http://www.w3.org/2000/svg" viewBox="0 0 1200 700">
<rect width="1200" height="700" fill="#eee2cf"/>
<path d="M60 530 C240 430 320 470 455 390 S700 320 830 360 S1010 310 1160 260" fill="none" stroke="#9f8f70" stroke-width="5" stroke-dasharray="13 14"/>
<path d="M100 585 C265 500 390 545 540 455 S820 370 1115 330" fill="none" stroke="#c7b99a" stroke-width="2"/>
<g fill="#747d5c">
<path d="M130 435l18-66 18 66z"/><rect x="143" y="435" width="8" height="38"/>
<path d="M240 355l18-72 18 72z"/><rect x="253" y="355" width="8" height="38"/>
<path d="M360 465l18-66 18 66z"/><rect x="373" y="465" width="8" height="38"/>
<path d="M790 330l18-70 18 70z"/><rect x="803" y="330" width="8" height="38"/>
<path d="M930 300l18-72 18 72z"/><rect x="943" y="300" width="8" height="38"/>
</g>
<g font-family="Georgia,serif" fill="#3f4435">
<text x="145" y="220" font-size="35">Pisa</text>
<text x="485" y="145" font-size="35">Firenze</text>
<text x="880" y="530" font-size="35">Siena</text>
</g>
<g fill="#b56f50"><circle cx="185" cy="245" r="11"/><circle cx="555" cy="175" r="11"/><circle cx="905" cy="495" r="11"/></g>
<path d="M185 245 C330 250 470 215 555 175 C640 160 705 200 770 235" fill="none" stroke="#b56f50" stroke-width="4"/>
<g transform="translate(770 235)">
<circle r="68" fill="#444b37"/>
<path d="M-35 20h70v28h-70zM-25-10h50v30h-50zM-16-32h32v22h-32z" fill="#f7efe5"/>
</g>
<text x="860" y="230" font-family="Georgia,serif" font-size="42" fill="#3f4435">Villa Grassina</text>
<text x="860" y="270" font-family="Arial,sans-serif" font-size="20" fill="#6f6a60">Pelago · Toscane</text>
</svg>