<svg xmlns="http://www.w3.org/2000/svg" viewBox="0 0 1200 700">
<defs>
  <linearGradient id="bg" x1="0" y1="0" x2="1" y2="1">
    <stop offset="0" stop-color="#f4ead9"/>
    <stop offset="1" stop-color="#ddd0b8"/>
  </linearGradient>
  <filter id="paper"><feTurbulence type="fractalNoise" baseFrequency=".8" numOctaves="2" seed="7"/><feColorMatrix values="1 0 0 0 0 0 1 0 0 0 0 0 1 0 0 0 0 0 .04 0"/></filter>
</defs>
<rect width="1200" height="700" fill="url(#bg)"/>
<rect width="1200" height="700" filter="url(#paper)" opacity=".45"/>
<path d="M40 520 C180 430, 280 460, 390 390 S610 330, 700 360 S900 300,1160 250" fill="none" stroke="#9e8e70" stroke-width="5" stroke-dasharray="12 14"/>
<path d="M85 570 C240 490, 360 540, 500 450 S770 370, 1110 320" fill="none" stroke="#c5b899" stroke-width="2"/>
<g fill="#75805d">
  <path d="M120 420l18-60 18 60z"/><rect x="133" y="420" width="8" height="35"/>
  <path d="M220 360l18-70 18 70z"/><rect x="233" y="360" width="8" height="38"/>
  <path d="M335 460l18-66 18 66z"/><rect x="348" y="460" width="8" height="36"/>
  <path d="M760 330l18-65 18 65z"/><rect x="773" y="330" width="8" height="38"/>
  <path d="M905 290l18-70 18 70z"/><rect x="918" y="290" width="8" height="38"/>
</g>
<g font-family="Georgia,serif" fill="#3e4434">
  <text x="150" y="230" font-size="34">Pisa</text>
  <text x="505" y="155" font-size="34">Firenze</text>
  <text x="845" y="520" font-size="34">Siena</text>
</g>
<g>
  <circle cx="185" cy="245" r="12" fill="#b66f50"/>
  <circle cx="575" cy="180" r="12" fill="#b66f50"/>
  <circle cx="870" cy="485" r="12" fill="#b66f50"/>
</g>
<g transform="translate(760 230)">
  <circle cx="0" cy="0" r="70" fill="#4a513c"/>
  <path d="M-34 20h68v28h-68zM-25-10h50v30h-50zM-16-32h32v22h-32z" fill="#f6efe5"/>
  <path d="M-44 48h88" stroke="#f6efe5" stroke-width="4"/>
</g>
<text x="855" y="230" font-family="Georgia,serif" font-size="42" fill="#3e4434">Villa Grassina</text>
<text x="855" y="270" font-family="Arial,sans-serif" font-size="20" fill="#6f6b61">Pelago · Toscane</text>
<path d="M575 180 C650 180, 675 220, 760 230" fill="none" stroke="#b66f50" stroke-width="4"/>
<path d="M185 245 C360 250, 510 220, 575 180" fill="none" stroke="#b66f50" stroke-width="4"/>
</svg>